# xmcd
#
# Track frame offsets: 
#        182
#        13630
#        62530
#        97295
#        174027
#        193232
#        269812
#
# Disc length: 4262 seconds
#
# Revision: 2
# Processed by: cddbd v1.5.2PL0 Copyright (c) Steve Scherf et al.
# Submitted via: ExactAudioCopy v0.95b4
#
DISCID=6010a407
DTITLE=Bonynge - Bellini - Beatrice di Tenda 3
DYEAR=1992
DGENRE=Opera
TTITLE0=Prega. Ah no, non sia la misera
TTITLE1=Nulla io dissi
TTITLE2=Ah! Se un'urna è a me concessa
TTITLE3=Norma - Sediziose voci ... Casta Diva
TTITLE4=I Puritani - Son vergin vezzosa
TTITLE5=I Puritani - O rendetemi la speme ... Qui la voce
TTITLE6=La Sonnambula - Ah, non credea mirarti ... Ah! non giunge
EXTD=YEAR: 1992
EXTT0=
EXTT1=
EXTT2=
EXTT3=
EXTT4=
EXTT5=
EXTT6=
PLAYORDER=
